ffmpeg version 8.1-full_build-www.gyan.dev Copyright (c) 2000-2026 the FFmpeg developers
  built with gcc 15.2.0 (Rev11, Built by MSYS2 project)
  configuration: --enable-gpl --enable-version3 --enable-shared --disable-w32threads --disable-autodetect --enable-cairo --enable-fontconfig --enable-iconv --enable-gnutls --enable-lcms2 --enable-libxml2 --enable-gmp --enable-bzlib --enable-lzma --enable-libsnappy --enable-zlib --enable-librist --enable-libsrt --enable-libssh --enable-libzmq --enable-avisynth --enable-libbluray --enable-libcaca --enable-libdvdnav --enable-libdvdread --enable-sdl2 --enable-libaribb24 --enable-libaribcaption --enable-libdav1d --enable-libdavs2 --enable-libopenjpeg --enable-libquirc --enable-libuavs3d --enable-libxevd --enable-libzvbi --enable-liboapv --enable-libqrencode --enable-librav1e --enable-libsvtav1 --enable-libvvenc --enable-libwebp --enable-libx264 --enable-libx265 --enable-libxavs2 --enable-libxeve --enable-libxvid --enable-libaom --enable-libjxl --enable-libsvtjpegxs --enable-libvpx --enable-mediafoundation --enable-libass --enable-frei0r --enable-libfreetype --enable-libfribidi --enable-libharfbuzz --enable-liblensfun --enable-libvidstab --enable-libvmaf --enable-libzimg --enable-amf --enable-cuda-llvm --enable-cuvid --enable-dxva2 --enable-d3d11va --enable-d3d12va --enable-ffnvcodec --enable-libvpl --enable-nvdec --enable-nvenc --enable-vaapi --enable-libshaderc --enable-vulkan --enable-libplacebo --enable-opencl --enable-libcdio --enable-openal --enable-libgme --enable-libmodplug --enable-libopenmpt --enable-libopencore-amrwb --enable-libmp3lame --enable-libshine --enable-libtheora --enable-libtwolame --enable-libvo-amrwbenc --enable-libcodec2 --enable-libilbc --enable-libgsm --enable-liblc3 --enable-libopencore-amrnb --enable-libopus --enable-libspeex --enable-libvorbis --enable-ladspa --enable-libbs2b --enable-libflite --enable-libmysofa --enable-librubberband --enable-libsoxr --enable-chromaprint --enable-whisper
  libavutil      60. 26.100 / 60. 26.100
  libavcodec     62. 28.100 / 62. 28.100
  libavformat    62. 12.100 / 62. 12.100
  libavdevice    62.  3.100 / 62.  3.100
  libavfilter    11. 14.100 / 11. 14.100
  libswscale      9.  5.100 /  9.  5.100
  libswresample   6.  3.100 /  6.  3.100
[Parsed_subtitles_0 @ 000002500da24740] libass API version: 0x1704000
[Parsed_subtitles_0 @ 000002500da24740] libass source: commit: 0.17.4-21-gfadc390583f24eb5cf98f16925fd3adee50bca88
[Parsed_subtitles_0 @ 000002500da24740] Shaper: FriBidi 1.0.16 (SIMPLE) HarfBuzz-ng 13.1.1 (COMPLEX)
[Parsed_subtitles_0 @ 000002500da24740] Using font provider directwrite (with GDI)
Input #0, mov,mp4,m4a,3gp,3g2,mj2, from 'dummy_vid.mp4':
  Metadata:
    major_brand     : isom
    minor_version   : 512
    compatible_brands: isomiso2avc1mp41
    encoder         : Lavf62.12.100
  Duration: 00:00:01.00, start: 0.000000, bitrate: 19 kb/s
  Stream #0:0[0x1](und): Video: h264 (High) (avc1 / 0x31637661), yuv420p(progressive), 640x360 [SAR 1:1 DAR 16:9], 10 kb/s, 25 fps, 25 tbr, 12800 tbn (default)
    Metadata:
      handler_name    : VideoHandler
      encoder         : Lavc62.28.100 libx264
Stream mapping:
  Stream #0:0 (h264) -> subtitles:default
  subtitles:default -> Stream #0:0 (libx264)
Press [q] to stop, [?] for help
[Parsed_subtitles_0 @ 000002500da3ed40] libass API version: 0x1704000
[Parsed_subtitles_0 @ 000002500da3ed40] libass source: commit: 0.17.4-21-gfadc390583f24eb5cf98f16925fd3adee50bca88
[Parsed_subtitles_0 @ 000002500da3ed40] Shaper: FriBidi 1.0.16 (SIMPLE) HarfBuzz-ng 13.1.1 (COMPLEX)
[Parsed_subtitles_0 @ 000002500da3ed40] Using font provider directwrite (with GDI)
[Parsed_subtitles_0 @ 000002500da3ed40] fontselect: (Arial, 400, 0) -> ArialMT, 0, ArialMT
[libx264 @ 000002500da25a00] using SAR=1/1
[libx264 @ 000002500da25a00] using cpu capabilities: MMX2 SSE2Fast SSSE3 SSE4.2 AVX FMA3 BMI2 AVX2
[libx264 @ 000002500da25a00] profile High, level 3.0, 4:2:0, 8-bit
[libx264 @ 000002500da25a00] 264 - core 165 r3223 0480cb0 - H.264/MPEG-4 AVC codec - Copyleft 2003-2025 - http://www.videolan.org/x264.html - options: cabac=1 ref=3 deblock=1:0:0 analyse=0x3:0x113 me=hex subme=7 psy=1 psy_rd=1.00:0.00 mixed_ref=1 me_range=16 chroma_me=1 trellis=1 8x8dct=1 cqm=0 deadzone=21,11 fast_pskip=1 chroma_qp_offset=-2 threads=11 lookahead_threads=1 sliced_threads=0 nr=0 decimate=1 interlaced=0 bluray_compat=0 constrained_intra=0 bframes=3 b_pyramid=2 b_adapt=1 b_bias=0 direct=1 weightb=1 open_gop=0 weightp=2 keyint=250 keyint_min=25 scenecut=40 intra_refresh=0 rc_lookahead=40 rc=crf mbtree=1 crf=23.0 qcomp=0.60 qpmin=0 qpmax=69 qpstep=4 ip_ratio=1.40 aq=1:1.00
Output #0, mp4, to 'out.mp4':
  Metadata:
    major_brand     : isom
    minor_version   : 512
    compatible_brands: isomiso2avc1mp41
    encoder         : Lavf62.12.100
  Stream #0:0: Video: h264 (avc1 / 0x31637661), yuv420p(tv, progressive), 640x360 [SAR 1:1 DAR 16:9], q=2-31, 25 fps, 12800 tbn
    Metadata:
      encoder         : Lavc62.28.100 libx264
    Side data:
      CPB properties: bitrate max/min/avg: 0/0/0 buffer size: 0 vbv_delay: N/A
[out#0/mp4 @ 000002500f6e0640] video:2KiB audio:0KiB subtitle:0KiB other streams:0KiB global headers:0KiB muxing overhead: 66.989186%
frame=   25 fps=0.0 q=-1.0 Lsize=       3KiB time=00:00:00.92 bitrate=  25.5kbits/s speed=25.7x elapsed=0:00:00.03    
[libx264 @ 000002500da25a00] frame I:1     Avg QP: 9.14  size:   531
[libx264 @ 000002500da25a00] frame P:6     Avg QP:10.35  size:    28
[libx264 @ 000002500da25a00] frame B:18    Avg QP:12.67  size:    21
[libx264 @ 000002500da25a00] consecutive B-frames:  4.0%  0.0%  0.0% 96.0%
[libx264 @ 000002500da25a00] mb I  I16..4: 99.1%  0.0%  0.9%
[libx264 @ 000002500da25a00] mb P  I16..4:  0.0%  0.0%  0.0%  P16..4:  0.0%  0.0%  0.0%  0.0%  0.0%    skip:100.0%
[libx264 @ 000002500da25a00] mb B  I16..4:  0.0%  0.0%  0.0%  B16..8:  0.1%  0.0%  0.0%  direct: 0.0%  skip:99.9%  L0:64.7% L1:35.3% BI: 0.0%
[libx264 @ 000002500da25a00] 8x8 transform intra:0.0% inter:0.0%
[libx264 @ 000002500da25a00] coded y,uvDC,uvAC intra: 0.6% 0.0% 0.0% inter: 0.0% 0.0% 0.0%
[libx264 @ 000002500da25a00] i16 v,h,dc,p: 95%  0%  4%  0%
[libx264 @ 000002500da25a00] i4 v,h,dc,ddl,ddr,vr,hd,vl,hu: 54% 13% 10%  3%  3%  6%  5%  4%  2%
[libx264 @ 000002500da25a00] i8c dc,h,v,p: 100%  0%  0%  0%
[libx264 @ 000002500da25a00] Weighted P-Frames: Y:0.0% UV:0.0%
[libx264 @ 000002500da25a00] ref B L0: 54.5% 45.5%
[libx264 @ 000002500da25a00] kb/s:8.54
